<mxfile host="app.diagrams.net" agent="Mozilla/5.0 (Macintosh; Intel Mac OS X 10_15_7) AppleWebKit/537.36 (KHTML, like Gecko) Chrome/129.0.0.0 Safari/537.36" version="24.7.16">
  <diagram name="Seite-1" id="eINUXUAzq3-PDIBj6JGJ">
    <mxGraphModel dx="1407" dy="761" grid="1" gridSize="10" guides="1" tooltips="1" connect="1" arrows="1" fold="1" page="1" pageScale="1" pageWidth="827" pageHeight="1169" math="0" shadow="0">
      <root>
        <mxCell id="0" />
        <mxCell id="1" parent="0" />
        <mxCell id="DkNYiRvpS_oE0w8Ys3OD-1" value="&lt;h1 style=&quot;margin-top: 0px;&quot;&gt;Matching Process&lt;/h1&gt;" style="text;html=1;whiteSpace=wrap;overflow=hidden;rounded=0;" parent="1" vertex="1">
          <mxGeometry width="220" height="120" as="geometry" />
        </mxCell>
        <mxCell id="DkNYiRvpS_oE0w8Ys3OD-2" value="A" style="ellipse;whiteSpace=wrap;html=1;aspect=fixed;" parent="1" vertex="1">
          <mxGeometry x="10" y="120" width="30" height="30" as="geometry" />
        </mxCell>
        <mxCell id="DkNYiRvpS_oE0w8Ys3OD-3" value="B" style="ellipse;whiteSpace=wrap;html=1;aspect=fixed;" parent="1" vertex="1">
          <mxGeometry x="10" y="320" width="30" height="30" as="geometry" />
        </mxCell>
        <mxCell id="DkNYiRvpS_oE0w8Ys3OD-4" value="C" style="ellipse;whiteSpace=wrap;html=1;aspect=fixed;" parent="1" vertex="1">
          <mxGeometry x="10" y="520" width="30" height="30" as="geometry" />
        </mxCell>
        <mxCell id="DkNYiRvpS_oE0w8Ys3OD-5" value="D" style="ellipse;whiteSpace=wrap;html=1;aspect=fixed;" parent="1" vertex="1">
          <mxGeometry x="10" y="640" width="30" height="30" as="geometry" />
        </mxCell>
        <mxCell id="DkNYiRvpS_oE0w8Ys3OD-6" value="E" style="ellipse;whiteSpace=wrap;html=1;aspect=fixed;" parent="1" vertex="1">
          <mxGeometry x="10" y="760" width="30" height="30" as="geometry" />
        </mxCell>
        <mxCell id="DkNYiRvpS_oE0w8Ys3OD-8" value="F" style="ellipse;whiteSpace=wrap;html=1;aspect=fixed;" parent="1" vertex="1">
          <mxGeometry x="10" y="960" width="30" height="30" as="geometry" />
        </mxCell>
        <mxCell id="DkNYiRvpS_oE0w8Ys3OD-20" style="edgeStyle=orthogonalEdgeStyle;rounded=0;orthogonalLoop=1;jettySize=auto;html=1;exitX=1;exitY=0.5;exitDx=0;exitDy=0;entryX=0;entryY=0.5;entryDx=0;entryDy=0;" parent="1" source="DkNYiRvpS_oE0w8Ys3OD-9" target="DkNYiRvpS_oE0w8Ys3OD-11" edge="1">
          <mxGeometry relative="1" as="geometry" />
        </mxCell>
        <mxCell id="DkNYiRvpS_oE0w8Ys3OD-106" value="AI" style="edgeLabel;html=1;align=center;verticalAlign=middle;resizable=0;points=[];" parent="DkNYiRvpS_oE0w8Ys3OD-20" connectable="0" vertex="1">
          <mxGeometry x="-0.35" y="1" relative="1" as="geometry">
            <mxPoint y="-9" as="offset" />
          </mxGeometry>
        </mxCell>
        <mxCell id="DkNYiRvpS_oE0w8Ys3OD-9" value="Resume" style="rounded=1;whiteSpace=wrap;html=1;" parent="1" vertex="1">
          <mxGeometry x="80" y="120" width="80" height="60" as="geometry" />
        </mxCell>
        <mxCell id="DkNYiRvpS_oE0w8Ys3OD-21" style="edgeStyle=orthogonalEdgeStyle;rounded=0;orthogonalLoop=1;jettySize=auto;html=1;exitX=1;exitY=0.5;exitDx=0;exitDy=0;" parent="1" source="DkNYiRvpS_oE0w8Ys3OD-11" target="DkNYiRvpS_oE0w8Ys3OD-12" edge="1">
          <mxGeometry relative="1" as="geometry" />
        </mxCell>
        <mxCell id="DkNYiRvpS_oE0w8Ys3OD-11" value="Story" style="rounded=1;whiteSpace=wrap;html=1;" parent="1" vertex="1">
          <mxGeometry x="200" y="120" width="80" height="60" as="geometry" />
        </mxCell>
        <mxCell id="DkNYiRvpS_oE0w8Ys3OD-22" style="edgeStyle=orthogonalEdgeStyle;rounded=0;orthogonalLoop=1;jettySize=auto;html=1;exitX=1;exitY=0.5;exitDx=0;exitDy=0;" parent="1" source="DkNYiRvpS_oE0w8Ys3OD-12" target="DkNYiRvpS_oE0w8Ys3OD-14" edge="1">
          <mxGeometry relative="1" as="geometry" />
        </mxCell>
        <mxCell id="DkNYiRvpS_oE0w8Ys3OD-12" value="Vector features" style="rounded=1;whiteSpace=wrap;html=1;" parent="1" vertex="1">
          <mxGeometry x="320" y="120" width="80" height="60" as="geometry" />
        </mxCell>
        <mxCell id="DkNYiRvpS_oE0w8Ys3OD-13" value="&lt;font style=&quot;font-size: 31px;&quot;&gt;...&lt;/font&gt;" style="text;html=1;align=center;verticalAlign=top;whiteSpace=wrap;rounded=0;horizontal=0;" parent="1" vertex="1">
          <mxGeometry x="325" y="190" width="70" height="30" as="geometry" />
        </mxCell>
        <mxCell id="DkNYiRvpS_oE0w8Ys3OD-14" value="Static Score Matching" style="text;html=1;align=center;verticalAlign=middle;whiteSpace=wrap;rounded=0;" parent="1" vertex="1">
          <mxGeometry x="440" y="135" width="60" height="30" as="geometry" />
        </mxCell>
        <mxCell id="DkNYiRvpS_oE0w8Ys3OD-19" style="edgeStyle=orthogonalEdgeStyle;rounded=0;orthogonalLoop=1;jettySize=auto;html=1;exitX=0;exitY=0.5;exitDx=0;exitDy=0;entryX=1;entryY=0.5;entryDx=0;entryDy=0;" parent="1" source="DkNYiRvpS_oE0w8Ys3OD-16" target="DkNYiRvpS_oE0w8Ys3OD-17" edge="1">
          <mxGeometry relative="1" as="geometry" />
        </mxCell>
        <mxCell id="DkNYiRvpS_oE0w8Ys3OD-112" value="AI" style="edgeLabel;html=1;align=center;verticalAlign=middle;resizable=0;points=[];" parent="DkNYiRvpS_oE0w8Ys3OD-19" connectable="0" vertex="1">
          <mxGeometry x="-0.2" y="-1" relative="1" as="geometry">
            <mxPoint y="-9" as="offset" />
          </mxGeometry>
        </mxCell>
        <mxCell id="DkNYiRvpS_oE0w8Ys3OD-16" value="Role" style="rounded=1;whiteSpace=wrap;html=1;" parent="1" vertex="1">
          <mxGeometry x="680" y="120" width="80" height="60" as="geometry" />
        </mxCell>
        <mxCell id="DkNYiRvpS_oE0w8Ys3OD-23" style="edgeStyle=orthogonalEdgeStyle;rounded=0;orthogonalLoop=1;jettySize=auto;html=1;exitX=0;exitY=0.5;exitDx=0;exitDy=0;" parent="1" source="DkNYiRvpS_oE0w8Ys3OD-17" target="DkNYiRvpS_oE0w8Ys3OD-14" edge="1">
          <mxGeometry relative="1" as="geometry" />
        </mxCell>
        <mxCell id="DkNYiRvpS_oE0w8Ys3OD-17" value="Vector features" style="rounded=1;whiteSpace=wrap;html=1;" parent="1" vertex="1">
          <mxGeometry x="560" y="120" width="80" height="60" as="geometry" />
        </mxCell>
        <mxCell id="DkNYiRvpS_oE0w8Ys3OD-18" value="&lt;font style=&quot;font-size: 31px;&quot;&gt;...&lt;/font&gt;" style="text;html=1;align=center;verticalAlign=top;whiteSpace=wrap;rounded=0;horizontal=0;" parent="1" vertex="1">
          <mxGeometry x="565" y="200" width="70" height="30" as="geometry" />
        </mxCell>
        <mxCell id="DkNYiRvpS_oE0w8Ys3OD-26" style="edgeStyle=orthogonalEdgeStyle;rounded=0;orthogonalLoop=1;jettySize=auto;html=1;exitX=1;exitY=0.5;exitDx=0;exitDy=0;entryX=0;entryY=0.5;entryDx=0;entryDy=0;" parent="1" source="DkNYiRvpS_oE0w8Ys3OD-27" target="DkNYiRvpS_oE0w8Ys3OD-29" edge="1">
          <mxGeometry relative="1" as="geometry" />
        </mxCell>
        <mxCell id="DkNYiRvpS_oE0w8Ys3OD-107" value="AI" style="edgeLabel;html=1;align=center;verticalAlign=middle;resizable=0;points=[];" parent="DkNYiRvpS_oE0w8Ys3OD-26" connectable="0" vertex="1">
          <mxGeometry x="-0.05" y="-2" relative="1" as="geometry">
            <mxPoint y="-12" as="offset" />
          </mxGeometry>
        </mxCell>
        <mxCell id="DkNYiRvpS_oE0w8Ys3OD-27" value="Resume" style="rounded=1;whiteSpace=wrap;html=1;" parent="1" vertex="1">
          <mxGeometry x="80" y="320" width="80" height="60" as="geometry" />
        </mxCell>
        <mxCell id="DkNYiRvpS_oE0w8Ys3OD-28" style="edgeStyle=orthogonalEdgeStyle;rounded=0;orthogonalLoop=1;jettySize=auto;html=1;exitX=1;exitY=0.5;exitDx=0;exitDy=0;" parent="1" source="DkNYiRvpS_oE0w8Ys3OD-29" target="DkNYiRvpS_oE0w8Ys3OD-31" edge="1">
          <mxGeometry relative="1" as="geometry" />
        </mxCell>
        <mxCell id="wC243nd9rioDYnv5aFRB-1" value="Ai" style="edgeLabel;html=1;align=center;verticalAlign=middle;resizable=0;points=[];" parent="DkNYiRvpS_oE0w8Ys3OD-28" connectable="0" vertex="1">
          <mxGeometry x="-0.1" y="1" relative="1" as="geometry">
            <mxPoint y="-14" as="offset" />
          </mxGeometry>
        </mxCell>
        <mxCell id="DkNYiRvpS_oE0w8Ys3OD-29" value="Story" style="rounded=1;whiteSpace=wrap;html=1;" parent="1" vertex="1">
          <mxGeometry x="200" y="320" width="80" height="60" as="geometry" />
        </mxCell>
        <mxCell id="DkNYiRvpS_oE0w8Ys3OD-30" style="edgeStyle=orthogonalEdgeStyle;rounded=0;orthogonalLoop=1;jettySize=auto;html=1;exitX=1;exitY=0.5;exitDx=0;exitDy=0;" parent="1" source="DkNYiRvpS_oE0w8Ys3OD-31" target="DkNYiRvpS_oE0w8Ys3OD-33" edge="1">
          <mxGeometry relative="1" as="geometry" />
        </mxCell>
        <mxCell id="DkNYiRvpS_oE0w8Ys3OD-31" value="&lt;div&gt;Human readable&lt;/div&gt;features" style="rounded=1;whiteSpace=wrap;html=1;" parent="1" vertex="1">
          <mxGeometry x="320" y="320" width="80" height="60" as="geometry" />
        </mxCell>
        <mxCell id="DkNYiRvpS_oE0w8Ys3OD-33" value="Static Score Matching" style="text;html=1;align=center;verticalAlign=middle;whiteSpace=wrap;rounded=0;" parent="1" vertex="1">
          <mxGeometry x="440" y="335" width="60" height="30" as="geometry" />
        </mxCell>
        <mxCell id="DkNYiRvpS_oE0w8Ys3OD-34" style="edgeStyle=orthogonalEdgeStyle;rounded=0;orthogonalLoop=1;jettySize=auto;html=1;exitX=0;exitY=0.5;exitDx=0;exitDy=0;entryX=1;entryY=0.5;entryDx=0;entryDy=0;" parent="1" source="DkNYiRvpS_oE0w8Ys3OD-35" target="DkNYiRvpS_oE0w8Ys3OD-37" edge="1">
          <mxGeometry relative="1" as="geometry" />
        </mxCell>
        <mxCell id="DkNYiRvpS_oE0w8Ys3OD-113" value="AI" style="edgeLabel;html=1;align=center;verticalAlign=middle;resizable=0;points=[];" parent="DkNYiRvpS_oE0w8Ys3OD-34" connectable="0" vertex="1">
          <mxGeometry x="-0.2" y="-1" relative="1" as="geometry">
            <mxPoint y="-9" as="offset" />
          </mxGeometry>
        </mxCell>
        <mxCell id="DkNYiRvpS_oE0w8Ys3OD-35" value="Role" style="rounded=1;whiteSpace=wrap;html=1;" parent="1" vertex="1">
          <mxGeometry x="680" y="320" width="80" height="60" as="geometry" />
        </mxCell>
        <mxCell id="DkNYiRvpS_oE0w8Ys3OD-36" style="edgeStyle=orthogonalEdgeStyle;rounded=0;orthogonalLoop=1;jettySize=auto;html=1;exitX=0;exitY=0.5;exitDx=0;exitDy=0;" parent="1" source="DkNYiRvpS_oE0w8Ys3OD-37" target="DkNYiRvpS_oE0w8Ys3OD-33" edge="1">
          <mxGeometry relative="1" as="geometry" />
        </mxCell>
        <mxCell id="DkNYiRvpS_oE0w8Ys3OD-37" value="&lt;div&gt;Human readable&lt;/div&gt;features" style="rounded=1;whiteSpace=wrap;html=1;" parent="1" vertex="1">
          <mxGeometry x="560" y="320" width="80" height="60" as="geometry" />
        </mxCell>
        <mxCell id="DkNYiRvpS_oE0w8Ys3OD-39" value="" style="verticalLabelPosition=bottom;shadow=0;dashed=0;align=center;html=1;verticalAlign=top;strokeWidth=1;shape=mxgraph.mockup.graphics.columnChart;strokeColor=none;strokeColor2=none;strokeColor3=#666666;fillColor2=#008cff;fillColor3=#dddddd;" parent="1" vertex="1">
          <mxGeometry x="315" y="390" width="90" height="40" as="geometry" />
        </mxCell>
        <mxCell id="DkNYiRvpS_oE0w8Ys3OD-41" value="" style="verticalLabelPosition=bottom;shadow=0;dashed=0;align=center;html=1;verticalAlign=top;strokeWidth=1;shape=mxgraph.mockup.graphics.columnChart;strokeColor=none;strokeColor2=none;strokeColor3=#666666;fillColor2=#008cff;fillColor3=#dddddd;" parent="1" vertex="1">
          <mxGeometry x="560" y="390" width="90" height="40" as="geometry" />
        </mxCell>
        <mxCell id="DkNYiRvpS_oE0w8Ys3OD-42" style="edgeStyle=orthogonalEdgeStyle;rounded=0;orthogonalLoop=1;jettySize=auto;html=1;exitX=1;exitY=0.5;exitDx=0;exitDy=0;entryX=0;entryY=0.5;entryDx=0;entryDy=0;" parent="1" source="DkNYiRvpS_oE0w8Ys3OD-43" target="DkNYiRvpS_oE0w8Ys3OD-48" edge="1">
          <mxGeometry relative="1" as="geometry">
            <mxPoint x="200" y="550" as="targetPoint" />
          </mxGeometry>
        </mxCell>
        <mxCell id="DkNYiRvpS_oE0w8Ys3OD-43" value="Resume" style="rounded=1;whiteSpace=wrap;html=1;" parent="1" vertex="1">
          <mxGeometry x="80" y="520" width="80" height="60" as="geometry" />
        </mxCell>
        <mxCell id="DkNYiRvpS_oE0w8Ys3OD-48" value="AI&amp;nbsp;&lt;br&gt;Score Matching" style="text;html=1;align=center;verticalAlign=middle;whiteSpace=wrap;rounded=0;" parent="1" vertex="1">
          <mxGeometry x="390" y="535" width="60" height="30" as="geometry" />
        </mxCell>
        <mxCell id="DkNYiRvpS_oE0w8Ys3OD-49" style="edgeStyle=orthogonalEdgeStyle;rounded=0;orthogonalLoop=1;jettySize=auto;html=1;exitX=0;exitY=0.5;exitDx=0;exitDy=0;entryX=1;entryY=0.5;entryDx=0;entryDy=0;" parent="1" source="DkNYiRvpS_oE0w8Ys3OD-50" target="DkNYiRvpS_oE0w8Ys3OD-48" edge="1">
          <mxGeometry relative="1" as="geometry">
            <mxPoint x="640" y="550" as="targetPoint" />
          </mxGeometry>
        </mxCell>
        <mxCell id="DkNYiRvpS_oE0w8Ys3OD-50" value="Role" style="rounded=1;whiteSpace=wrap;html=1;" parent="1" vertex="1">
          <mxGeometry x="680" y="520" width="80" height="60" as="geometry" />
        </mxCell>
        <mxCell id="DkNYiRvpS_oE0w8Ys3OD-55" style="edgeStyle=orthogonalEdgeStyle;rounded=0;orthogonalLoop=1;jettySize=auto;html=1;exitX=1;exitY=0.5;exitDx=0;exitDy=0;entryX=0;entryY=0.5;entryDx=0;entryDy=0;" parent="1" source="DkNYiRvpS_oE0w8Ys3OD-56" target="DkNYiRvpS_oE0w8Ys3OD-58" edge="1">
          <mxGeometry relative="1" as="geometry" />
        </mxCell>
        <mxCell id="DkNYiRvpS_oE0w8Ys3OD-108" value="AI" style="edgeLabel;html=1;align=center;verticalAlign=middle;resizable=0;points=[];" parent="DkNYiRvpS_oE0w8Ys3OD-55" connectable="0" vertex="1">
          <mxGeometry x="-0.15" y="1" relative="1" as="geometry">
            <mxPoint x="3" y="-14" as="offset" />
          </mxGeometry>
        </mxCell>
        <mxCell id="DkNYiRvpS_oE0w8Ys3OD-56" value="Resume" style="rounded=1;whiteSpace=wrap;html=1;" parent="1" vertex="1">
          <mxGeometry x="80" y="640" width="80" height="60" as="geometry" />
        </mxCell>
        <mxCell id="DkNYiRvpS_oE0w8Ys3OD-57" style="edgeStyle=orthogonalEdgeStyle;rounded=0;orthogonalLoop=1;jettySize=auto;html=1;exitX=1;exitY=0.5;exitDx=0;exitDy=0;entryX=0;entryY=0.5;entryDx=0;entryDy=0;" parent="1" source="DkNYiRvpS_oE0w8Ys3OD-58" target="DkNYiRvpS_oE0w8Ys3OD-61" edge="1">
          <mxGeometry relative="1" as="geometry">
            <mxPoint x="320" y="670" as="targetPoint" />
          </mxGeometry>
        </mxCell>
        <mxCell id="DkNYiRvpS_oE0w8Ys3OD-58" value="Story" style="rounded=1;whiteSpace=wrap;html=1;" parent="1" vertex="1">
          <mxGeometry x="200" y="640" width="80" height="60" as="geometry" />
        </mxCell>
        <mxCell id="DkNYiRvpS_oE0w8Ys3OD-61" value="AI&lt;br&gt;Score Matching" style="text;html=1;align=center;verticalAlign=middle;whiteSpace=wrap;rounded=0;" parent="1" vertex="1">
          <mxGeometry x="450" y="655" width="60" height="30" as="geometry" />
        </mxCell>
        <mxCell id="DkNYiRvpS_oE0w8Ys3OD-62" style="edgeStyle=orthogonalEdgeStyle;rounded=0;orthogonalLoop=1;jettySize=auto;html=1;exitX=0;exitY=0.5;exitDx=0;exitDy=0;entryX=1;entryY=0.5;entryDx=0;entryDy=0;" parent="1" source="DkNYiRvpS_oE0w8Ys3OD-63" target="DkNYiRvpS_oE0w8Ys3OD-61" edge="1">
          <mxGeometry relative="1" as="geometry">
            <mxPoint x="640" y="670" as="targetPoint" />
          </mxGeometry>
        </mxCell>
        <mxCell id="DkNYiRvpS_oE0w8Ys3OD-63" value="Role" style="rounded=1;whiteSpace=wrap;html=1;" parent="1" vertex="1">
          <mxGeometry x="680" y="640" width="80" height="60" as="geometry" />
        </mxCell>
        <mxCell id="DkNYiRvpS_oE0w8Ys3OD-66" style="edgeStyle=orthogonalEdgeStyle;rounded=0;orthogonalLoop=1;jettySize=auto;html=1;exitX=1;exitY=0.5;exitDx=0;exitDy=0;entryX=0;entryY=0.5;entryDx=0;entryDy=0;" parent="1" source="DkNYiRvpS_oE0w8Ys3OD-67" target="DkNYiRvpS_oE0w8Ys3OD-69" edge="1">
          <mxGeometry relative="1" as="geometry" />
        </mxCell>
        <mxCell id="DkNYiRvpS_oE0w8Ys3OD-109" value="AI" style="edgeLabel;html=1;align=center;verticalAlign=middle;resizable=0;points=[];" parent="DkNYiRvpS_oE0w8Ys3OD-66" connectable="0" vertex="1">
          <mxGeometry x="-0.05" relative="1" as="geometry">
            <mxPoint y="-10" as="offset" />
          </mxGeometry>
        </mxCell>
        <mxCell id="DkNYiRvpS_oE0w8Ys3OD-67" value="Resume" style="rounded=1;whiteSpace=wrap;html=1;" parent="1" vertex="1">
          <mxGeometry x="80" y="760" width="80" height="60" as="geometry" />
        </mxCell>
        <mxCell id="DkNYiRvpS_oE0w8Ys3OD-68" style="edgeStyle=orthogonalEdgeStyle;rounded=0;orthogonalLoop=1;jettySize=auto;html=1;exitX=1;exitY=0.5;exitDx=0;exitDy=0;" parent="1" source="DkNYiRvpS_oE0w8Ys3OD-69" target="DkNYiRvpS_oE0w8Ys3OD-71" edge="1">
          <mxGeometry relative="1" as="geometry" />
        </mxCell>
        <mxCell id="DkNYiRvpS_oE0w8Ys3OD-110" value="AI" style="edgeLabel;html=1;align=center;verticalAlign=middle;resizable=0;points=[];" parent="DkNYiRvpS_oE0w8Ys3OD-68" connectable="0" vertex="1">
          <mxGeometry x="-0.15" y="-1" relative="1" as="geometry">
            <mxPoint x="3" y="-16" as="offset" />
          </mxGeometry>
        </mxCell>
        <mxCell id="DkNYiRvpS_oE0w8Ys3OD-69" value="Story" style="rounded=1;whiteSpace=wrap;html=1;" parent="1" vertex="1">
          <mxGeometry x="200" y="760" width="80" height="60" as="geometry" />
        </mxCell>
        <mxCell id="DkNYiRvpS_oE0w8Ys3OD-70" style="edgeStyle=orthogonalEdgeStyle;rounded=0;orthogonalLoop=1;jettySize=auto;html=1;exitX=1;exitY=0.5;exitDx=0;exitDy=0;" parent="1" source="DkNYiRvpS_oE0w8Ys3OD-71" target="DkNYiRvpS_oE0w8Ys3OD-72" edge="1">
          <mxGeometry relative="1" as="geometry" />
        </mxCell>
        <mxCell id="DkNYiRvpS_oE0w8Ys3OD-71" value="&lt;div&gt;Human readable&lt;/div&gt;features" style="rounded=1;whiteSpace=wrap;html=1;" parent="1" vertex="1">
          <mxGeometry x="320" y="760" width="80" height="60" as="geometry" />
        </mxCell>
        <mxCell id="DkNYiRvpS_oE0w8Ys3OD-72" value="AI&amp;nbsp;&lt;div&gt;Score&lt;div&gt;Matching&lt;/div&gt;&lt;/div&gt;" style="text;html=1;align=center;verticalAlign=middle;whiteSpace=wrap;rounded=0;" parent="1" vertex="1">
          <mxGeometry x="440" y="775" width="60" height="30" as="geometry" />
        </mxCell>
        <mxCell id="DkNYiRvpS_oE0w8Ys3OD-73" style="edgeStyle=orthogonalEdgeStyle;rounded=0;orthogonalLoop=1;jettySize=auto;html=1;exitX=0;exitY=0.5;exitDx=0;exitDy=0;entryX=1;entryY=0.5;entryDx=0;entryDy=0;" parent="1" source="DkNYiRvpS_oE0w8Ys3OD-74" target="DkNYiRvpS_oE0w8Ys3OD-76" edge="1">
          <mxGeometry relative="1" as="geometry" />
        </mxCell>
        <mxCell id="DkNYiRvpS_oE0w8Ys3OD-114" value="AI" style="edgeLabel;html=1;align=center;verticalAlign=middle;resizable=0;points=[];" parent="DkNYiRvpS_oE0w8Ys3OD-73" connectable="0" vertex="1">
          <mxGeometry x="-0.25" relative="1" as="geometry">
            <mxPoint y="-15" as="offset" />
          </mxGeometry>
        </mxCell>
        <mxCell id="DkNYiRvpS_oE0w8Ys3OD-74" value="Role" style="rounded=1;whiteSpace=wrap;html=1;" parent="1" vertex="1">
          <mxGeometry x="680" y="760" width="80" height="60" as="geometry" />
        </mxCell>
        <mxCell id="DkNYiRvpS_oE0w8Ys3OD-75" style="edgeStyle=orthogonalEdgeStyle;rounded=0;orthogonalLoop=1;jettySize=auto;html=1;exitX=0;exitY=0.5;exitDx=0;exitDy=0;" parent="1" source="DkNYiRvpS_oE0w8Ys3OD-76" target="DkNYiRvpS_oE0w8Ys3OD-72" edge="1">
          <mxGeometry relative="1" as="geometry" />
        </mxCell>
        <mxCell id="DkNYiRvpS_oE0w8Ys3OD-76" value="&lt;div&gt;Human readable&lt;/div&gt;features" style="rounded=1;whiteSpace=wrap;html=1;" parent="1" vertex="1">
          <mxGeometry x="560" y="760" width="80" height="60" as="geometry" />
        </mxCell>
        <mxCell id="DkNYiRvpS_oE0w8Ys3OD-77" value="" style="verticalLabelPosition=bottom;shadow=0;dashed=0;align=center;html=1;verticalAlign=top;strokeWidth=1;shape=mxgraph.mockup.graphics.columnChart;strokeColor=none;strokeColor2=none;strokeColor3=#666666;fillColor2=#008cff;fillColor3=#dddddd;" parent="1" vertex="1">
          <mxGeometry x="315" y="830" width="90" height="40" as="geometry" />
        </mxCell>
        <mxCell id="DkNYiRvpS_oE0w8Ys3OD-78" value="" style="verticalLabelPosition=bottom;shadow=0;dashed=0;align=center;html=1;verticalAlign=top;strokeWidth=1;shape=mxgraph.mockup.graphics.columnChart;strokeColor=none;strokeColor2=none;strokeColor3=#666666;fillColor2=#008cff;fillColor3=#dddddd;" parent="1" vertex="1">
          <mxGeometry x="560" y="830" width="90" height="40" as="geometry" />
        </mxCell>
        <mxCell id="DkNYiRvpS_oE0w8Ys3OD-93" style="edgeStyle=orthogonalEdgeStyle;rounded=0;orthogonalLoop=1;jettySize=auto;html=1;exitX=1;exitY=0.5;exitDx=0;exitDy=0;entryX=0;entryY=0.5;entryDx=0;entryDy=0;" parent="1" source="DkNYiRvpS_oE0w8Ys3OD-94" target="DkNYiRvpS_oE0w8Ys3OD-96" edge="1">
          <mxGeometry relative="1" as="geometry" />
        </mxCell>
        <mxCell id="DkNYiRvpS_oE0w8Ys3OD-94" value="Resume" style="rounded=1;whiteSpace=wrap;html=1;" parent="1" vertex="1">
          <mxGeometry x="80" y="960" width="80" height="60" as="geometry" />
        </mxCell>
        <mxCell id="DkNYiRvpS_oE0w8Ys3OD-95" style="edgeStyle=orthogonalEdgeStyle;rounded=0;orthogonalLoop=1;jettySize=auto;html=1;exitX=1;exitY=0.5;exitDx=0;exitDy=0;" parent="1" source="DkNYiRvpS_oE0w8Ys3OD-96" edge="1">
          <mxGeometry relative="1" as="geometry">
            <mxPoint x="360" y="1040" as="targetPoint" />
          </mxGeometry>
        </mxCell>
        <mxCell id="DkNYiRvpS_oE0w8Ys3OD-96" value="Story" style="rounded=1;whiteSpace=wrap;html=1;" parent="1" vertex="1">
          <mxGeometry x="200" y="960" width="80" height="60" as="geometry" />
        </mxCell>
        <mxCell id="DkNYiRvpS_oE0w8Ys3OD-97" style="edgeStyle=orthogonalEdgeStyle;rounded=0;orthogonalLoop=1;jettySize=auto;html=1;" parent="1" edge="1">
          <mxGeometry relative="1" as="geometry">
            <mxPoint x="390" y="1069.9999999999998" as="sourcePoint" />
            <mxPoint x="440" y="1070" as="targetPoint" />
          </mxGeometry>
        </mxCell>
        <mxCell id="DkNYiRvpS_oE0w8Ys3OD-100" style="edgeStyle=orthogonalEdgeStyle;rounded=0;orthogonalLoop=1;jettySize=auto;html=1;exitX=0;exitY=0.5;exitDx=0;exitDy=0;entryX=1;entryY=0.5;entryDx=0;entryDy=0;" parent="1" source="DkNYiRvpS_oE0w8Ys3OD-101" target="DkNYiRvpS_oE0w8Ys3OD-103" edge="1">
          <mxGeometry relative="1" as="geometry" />
        </mxCell>
        <mxCell id="DkNYiRvpS_oE0w8Ys3OD-111" value="AI" style="edgeLabel;html=1;align=center;verticalAlign=middle;resizable=0;points=[];" parent="DkNYiRvpS_oE0w8Ys3OD-100" connectable="0" vertex="1">
          <mxGeometry x="-0.0667" y="-3" relative="1" as="geometry">
            <mxPoint y="-7" as="offset" />
          </mxGeometry>
        </mxCell>
        <mxCell id="DkNYiRvpS_oE0w8Ys3OD-101" value="Role" style="rounded=1;whiteSpace=wrap;html=1;" parent="1" vertex="1">
          <mxGeometry x="530" y="920" width="80" height="60" as="geometry" />
        </mxCell>
        <mxCell id="DkNYiRvpS_oE0w8Ys3OD-116" style="edgeStyle=orthogonalEdgeStyle;rounded=0;orthogonalLoop=1;jettySize=auto;html=1;exitX=0;exitY=0.5;exitDx=0;exitDy=0;entryX=0.5;entryY=0;entryDx=0;entryDy=0;" parent="1" source="DkNYiRvpS_oE0w8Ys3OD-103" edge="1">
          <mxGeometry relative="1" as="geometry">
            <mxPoint x="360" y="1040" as="targetPoint" />
          </mxGeometry>
        </mxCell>
        <mxCell id="DkNYiRvpS_oE0w8Ys3OD-124" value="AI" style="edgeLabel;html=1;align=center;verticalAlign=middle;resizable=0;points=[];" parent="DkNYiRvpS_oE0w8Ys3OD-116" connectable="0" vertex="1">
          <mxGeometry x="0.4468" relative="1" as="geometry">
            <mxPoint x="-10" y="6" as="offset" />
          </mxGeometry>
        </mxCell>
        <mxCell id="DkNYiRvpS_oE0w8Ys3OD-103" value="Choose role specific features" style="rounded=1;whiteSpace=wrap;html=1;" parent="1" vertex="1">
          <mxGeometry x="400" y="920" width="85" height="60" as="geometry" />
        </mxCell>
        <mxCell id="DkNYiRvpS_oE0w8Ys3OD-104" value="" style="verticalLabelPosition=bottom;shadow=0;dashed=0;align=center;html=1;verticalAlign=top;strokeWidth=1;shape=mxgraph.mockup.graphics.columnChart;strokeColor=none;strokeColor2=none;strokeColor3=#666666;fillColor2=#008cff;fillColor3=#dddddd;" parent="1" vertex="1">
          <mxGeometry x="315" y="1110" width="90" height="40" as="geometry" />
        </mxCell>
        <mxCell id="DkNYiRvpS_oE0w8Ys3OD-105" value="" style="verticalLabelPosition=bottom;shadow=0;dashed=0;align=center;html=1;verticalAlign=top;strokeWidth=1;shape=mxgraph.mockup.graphics.columnChart;strokeColor=none;strokeColor2=none;strokeColor3=#666666;fillColor2=#008cff;fillColor3=#dddddd;" parent="1" vertex="1">
          <mxGeometry x="400" y="990" width="90" height="40" as="geometry" />
        </mxCell>
        <mxCell id="DkNYiRvpS_oE0w8Ys3OD-121" value="Story features based on specific role&lt;div&gt;&lt;/div&gt;" style="rounded=1;whiteSpace=wrap;html=1;" parent="1" vertex="1">
          <mxGeometry x="320" y="1040" width="80" height="60" as="geometry" />
        </mxCell>
        <mxCell id="DkNYiRvpS_oE0w8Ys3OD-123" value="Static Matching" style="text;html=1;align=center;verticalAlign=middle;whiteSpace=wrap;rounded=0;" parent="1" vertex="1">
          <mxGeometry x="440" y="1055" width="60" height="30" as="geometry" />
        </mxCell>
      </root>
    </mxGraphModel>
  </diagram>
</mxfile>
